<svg width="180" height="268" viewBox="0 0 180 268" fill="none" xmlns="http://www.w3.org/2000/svg">
<rect x="77.8478" y="51.4188" width="24.0762" height="14.2021" rx="7.10107" fill="white"/>
<rect x="5.61932" y="61.3603" width="24.0762" height="14.2021" fill="white"/>
<rect x="153.96" y="76.9827" width="24.0762" height="14.2021" rx="7.10107" fill="white"/>
<rect x="31.2487" y="27.9853" width="111.061" height="35.5054" fill="#FFE599"/>
<rect x="76.2945" y="54.9694" width="20.9696" height="13.492" rx="6.74602" fill="white"/>
<path d="M39.5046 0.398132C35.7929 2.07304 32.1442 12.095 28.6843 30.1895C27.143 38.262 25.9477 45.9501 25.1299 53.3636L24.5952 58.3334L23.1798 57.949C22.3619 57.7293 20.3174 57.4822 18.5874 57.3998C11.29 57.0429 4.65315 59.9534 2.01099 64.6761C1.09881 66.2961 0.972992 66.7628 0.972992 68.8496C0.972992 70.9364 1.09881 71.4032 2.01099 73.0231C4.52733 77.5262 10.5351 80.3543 17.518 80.3817C25.9163 80.3817 32.8677 76.2357 34.2202 70.3323L34.5662 68.8496H85.0819H135.598L137.39 69.5086C142.58 71.3757 145.757 75.0825 148.808 82.9078C150.538 87.2736 151.671 89.0034 154.093 90.9803C157.458 93.7261 162.239 95.044 166.454 94.44C174.695 93.2593 180.42 86.4498 179.162 79.3933C178.281 74.5882 173.626 64.6486 170.072 60.0083C166.234 55.011 160.384 52.4026 153.684 52.7321C152.048 52.787 150.444 52.9517 150.161 53.0616C149.721 53.1988 149.595 53.0341 149.469 52.0456C149.375 51.3867 148.84 47.7623 148.337 44.0006C147.173 35.8457 145.002 24.3136 143.461 18.2729C140.599 7.09776 137.862 1.38661 134.874 0.288307C133.805 -0.0960974 133.522 -0.0960974 131.76 0.288307C129.338 0.837457 127.671 1.74355 125.092 3.88523C121.663 6.76827 117.04 12.6167 113.926 18.0258C112.856 19.8655 112.699 20.0302 111.912 19.8929C111.441 19.838 109.144 19.4536 106.817 19.0692C98.4815 17.6963 95.1473 17.3943 87.3152 17.3943C79.4516 17.3943 74.8592 17.8062 66.398 19.3163C64.322 19.6733 62.4662 19.9753 62.2775 19.9753C62.0888 19.9753 61.271 18.8221 60.4217 17.4218C56.8988 11.5184 53.1872 6.96047 49.3498 3.74795C45.5438 0.590339 41.8951 -0.672709 39.5046 0.398132ZM68.9144 30.1895C74.9222 31.2878 79.9234 35.4339 82.1567 41.1176C83.0688 43.424 82.9745 47.7897 81.9994 50.3982C78.5079 59.6788 66.6497 64.0171 56.5214 59.7337C55.1059 59.1297 53.659 58.1687 52.0548 56.7683C48.3747 53.5833 46.6762 50.1511 46.6132 45.7853C46.5818 41.3647 48.3432 37.5206 51.7718 34.5278C56.4585 30.4366 62.2461 28.9539 68.9144 30.1895ZM114.209 30.1895C117.165 30.7112 120.248 32.2213 122.701 34.3356C132.263 42.6277 128.615 56.6585 115.907 60.53C106.062 63.5229 95.4933 58.6629 92.4737 49.7667C91.7188 47.5426 91.7188 43.4789 92.4737 41.2548C93.3544 38.6738 94.8642 36.4773 97.066 34.5003C101.69 30.4091 107.477 28.9539 114.209 30.1895ZM90.2719 56.988C91.7188 57.7293 92.0962 58.5805 91.53 59.7612C90.7122 61.491 88.825 62.809 87.2208 62.809C85.4594 62.809 82.9116 60.4476 82.9116 58.8276C82.9116 56.6585 87.4095 55.5327 90.2719 56.988ZM23.7145 64.6761C24.3121 65.033 25.1928 71.7601 24.721 72.2818C24.3121 72.7211 22.9596 72.8309 22.7079 72.474C22.299 71.8974 21.607 65.4449 21.9216 64.9781C22.2361 64.429 23.0225 64.3191 23.7145 64.6761ZM12.7369 65.6371C12.9256 65.8567 13.2402 67.5042 13.4604 69.3164C13.7749 72.0347 13.7435 72.7211 13.4289 73.0781C12.8942 73.6272 12.328 73.6272 11.7304 73.133C11.2586 72.7211 10.3464 66.4059 10.6924 65.692C10.9126 65.1703 12.2651 65.1428 12.7369 65.6371ZM172.777 81.7546C173.594 83.1549 172.997 87.1088 171.739 88.8112C171.204 89.5525 170.292 89.6349 169.694 89.0034C169.38 88.6464 169.411 88.3444 169.883 87.1637C170.26 86.2851 170.512 84.9397 170.543 83.6492C170.543 82.496 170.669 81.4251 170.795 81.2329C171.172 80.7112 172.336 81.0133 172.777 81.7546ZM162.114 81.7272C163.309 82.3861 163.183 86.2027 161.893 88.7563C161.39 89.7447 161.107 89.9919 160.478 89.9919C159.283 89.9919 158.874 89.1132 159.566 88.0149C159.912 87.4109 160.132 86.2302 160.226 84.6377C160.384 81.6997 160.824 81.0133 162.114 81.7272Z" fill="#746B6B"/>
<path d="M62.4662 36.5047C60.0127 37.3285 57.1504 39.882 56.2068 42.0786C55.6091 43.4515 55.5148 44.1105 55.6091 46.06C55.7979 48.9156 56.5842 50.563 58.7546 52.4576C61.0507 54.462 63.2525 55.2583 66.5552 55.2583C68.8199 55.2583 69.5119 55.121 71.1161 54.4894C73.5695 53.501 75.7084 51.6339 76.8093 49.5196C77.5642 48.1193 77.69 47.4878 77.69 45.5108C77.7215 43.5613 77.5642 42.9298 76.8722 41.6118C75.8342 39.6898 73.5381 37.6305 71.4306 36.7244C69.1345 35.7908 64.8881 35.6535 62.4662 36.5047Z" fill="#746B6B"/>
<path d="M104.93 36.1478C102.036 36.9715 99.2678 39.0034 98.0725 41.1451C95.2416 46.2522 97.6636 52.1006 103.609 54.5169C105.087 55.121 105.842 55.2583 108.075 55.2583C110.497 55.2583 110.969 55.1759 112.856 54.3522C116.945 52.5949 119.147 49.4922 119.147 45.4559C119.179 43.6712 119.021 43.0946 118.204 41.5844C117.071 39.4702 115.31 37.8502 113.045 36.8342C111.661 36.2027 110.906 36.0654 108.547 35.983C107.006 35.9556 105.37 36.0105 104.93 36.1478Z" fill="#746B6B"/>
<path d="M26.2937 179.695C26.2937 183.484 28.6214 202.952 29.9424 210.585L30.7602 215.17L29.9739 216.077C26.6712 219.921 25.8534 225.824 28.0552 230.025C31.4837 236.615 42.9645 238.043 49.7587 232.688C53.0614 230.08 56.9617 224.177 58.0312 220.195C59.0062 216.543 59.1006 213.962 58.5659 207.784C58.2828 204.682 58.0626 201.195 58.0626 199.986C58.0626 198.147 58.1255 197.872 58.5659 198.01C59.2893 198.257 69.4491 199.492 72.4373 199.712L75.0165 199.904L75.2052 201.442C76.369 211.464 78.0676 217.861 81.7163 226.126C84.327 232.029 84.8932 234.363 84.7359 238.125C84.6101 240.926 84.5157 241.283 83.5406 242.875C81.8736 245.621 80.3323 246.609 74.1672 248.998C73.0663 249.41 71.8711 250.206 70.8016 251.222C63.8817 257.73 69.2289 268.136 79.4516 267.999C84.4214 267.916 92.7253 264.072 98.104 259.377C106.282 252.183 109.616 241.667 107.289 230.574C106.534 227.06 105.401 223.765 103.325 219.124C100.746 213.358 99.1734 207.757 98.45 201.826L98.2613 200.124L99.2993 199.986C99.8969 199.904 101.375 199.767 102.571 199.684C105.401 199.465 115.404 198.229 116.064 198.01C116.505 197.872 116.568 198.174 116.568 200.398C116.568 201.826 116.348 205.396 116.096 208.334C115.435 216.296 115.97 219.921 118.455 224.479C123.739 234.144 130.848 237.713 139.875 235.242C145.411 233.759 148.683 228.707 147.77 223.161C147.361 220.607 146.418 218.383 145.002 216.543L143.933 215.116L144.719 210.558C146.103 202.979 148.337 183.951 148.337 179.97V178.679H87.3152H26.2937V179.695ZM34.5977 224.149C34.9122 224.424 35.1009 225.055 35.1009 225.851C35.1009 226.565 35.3211 227.719 35.6357 228.432C36.2648 229.943 35.8559 230.656 34.5033 230.519C33.4339 230.409 32.6161 228.597 32.6161 226.153C32.5846 223.874 33.371 223.078 34.5977 224.149ZM141.92 224.396C142.36 225 142.392 225.357 142.109 226.812C141.637 229.393 140.976 230.574 140.064 230.574C138.774 230.574 138.428 229.943 139.026 228.652C139.309 228.048 139.529 226.867 139.529 226.071C139.529 223.847 140.85 222.941 141.92 224.396ZM42.7129 224.314C43.0274 224.533 43.2791 225.302 43.3734 226.318C43.4993 227.252 43.7823 228.432 44.0654 229.009C44.5058 229.97 44.5058 230.052 43.8767 230.602C43.3105 231.096 43.1533 231.123 42.5556 230.766C41.1087 229.943 40.228 225.494 41.2975 224.479C41.8951 223.902 42.0524 223.874 42.7129 224.314ZM133.364 224.424C134.465 225.357 133.553 229.943 132.106 230.766C131.571 231.068 131.383 231.068 130.879 230.739C130.282 230.354 130.282 230.3 130.817 228.57C131.1 227.581 131.351 226.291 131.351 225.659C131.351 224.89 131.509 224.479 131.917 224.286C132.641 223.902 132.798 223.902 133.364 224.424Z" fill="#746B6B"/>
</svg>
