<svg width="179" height="95" viewBox="0 0 179 95" fill="none" xmlns="http://www.w3.org/2000/svg">
<rect x="41" y="27" width="101" height="36" fill="#FFE599"/>
<path d="M60.8886 35.5662C58.4352 36.3899 55.5728 38.9434 54.6292 41.1401C54.0316 42.5129 53.9372 43.1719 54.0316 45.1214C54.2203 47.977 55.0067 49.6245 57.177 51.519C59.4732 53.5234 61.6749 54.3197 64.9776 54.3197C67.2423 54.3197 67.9343 54.1824 69.5385 53.5509C71.9919 52.5624 74.1308 50.6953 75.2317 48.5811C75.9866 47.1807 76.1124 46.5492 76.1124 44.5723C76.1439 42.6228 75.9866 41.9912 75.2946 40.6733C74.2566 38.7512 71.9605 36.6919 69.853 35.7858C67.5569 34.8523 63.3106 34.715 60.8886 35.5662Z" fill="#746B6B"/>
<path d="M103.352 35.2092C100.458 36.033 97.6902 38.0648 96.495 40.2065C93.664 45.3136 96.086 51.1621 102.031 53.5783C103.509 54.1824 104.264 54.3197 106.498 54.3197C108.92 54.3197 109.391 54.2373 111.279 53.4136C115.368 51.6563 117.57 48.5536 117.57 44.5173C117.601 42.7326 117.444 42.156 116.626 40.6458C115.494 38.5316 113.732 36.9116 111.467 35.8957C110.083 35.2641 109.328 35.1269 106.969 35.0445C105.428 35.017 103.792 35.0719 103.352 35.2092Z" fill="#746B6B"/>
<rect x="80" y="54" width="12" height="11" fill="white"/>
<rect x="7" y="63" width="21" height="11" fill="white"/>
<rect x="153" y="79" width="21" height="11" fill="white"/>
<path d="M38.5316 0.398148C34.82 2.07305 31.1713 12.095 27.7113 30.1895C26.17 38.262 24.9747 45.9501 24.1569 53.3636L23.6222 58.3334L22.2068 57.949C21.389 57.7293 19.3444 57.4822 17.6144 57.3999C10.317 57.0429 3.68016 59.9534 1.03799 64.6761C0.125817 66.2961 0 66.7629 0 68.8496C0 70.9364 0.125817 71.4032 1.03799 73.0232C3.55434 77.5262 9.56212 80.3543 16.545 80.3818C24.9433 80.3818 31.8947 76.2357 33.2472 70.3323L33.5932 68.8496H84.1089H134.625L136.417 69.5086C141.607 71.3757 144.784 75.0825 147.835 82.9078C149.565 87.2736 150.698 89.0034 153.12 90.9803C156.485 93.7261 161.266 95.044 165.481 94.44C173.722 93.2593 179.447 86.4499 178.189 79.3933C177.308 74.5882 172.653 64.6486 169.099 60.0083C165.261 55.0111 159.411 52.4026 152.711 52.7321C151.075 52.787 149.471 52.9517 149.188 53.0616C148.748 53.1989 148.622 53.0341 148.496 52.0457C148.402 51.3867 147.867 47.7623 147.364 44.0006C146.2 35.8457 144.029 24.3136 142.488 18.273C139.626 7.09777 136.889 1.38662 133.901 0.288322C132.832 -0.0960846 132.549 -0.0960846 130.787 0.288322C128.365 0.837471 126.698 1.74357 124.119 3.88525C120.69 6.76828 116.067 12.6167 112.953 18.0258C111.883 19.8655 111.726 20.0302 110.939 19.893C110.468 19.838 108.171 19.4536 105.844 19.0692C97.5085 17.6964 94.1743 17.3943 86.3422 17.3943C78.4786 17.3943 73.8863 17.8062 65.425 19.3163C63.349 19.6733 61.4932 19.9753 61.3045 19.9753C61.1158 19.9753 60.298 18.8221 59.4487 17.4218C55.9258 11.5184 52.2142 6.96049 48.3768 3.74796C44.5708 0.590355 40.9221 -0.672691 38.5316 0.398148ZM67.9414 30.1895C73.9492 31.2878 78.9504 35.4339 81.1837 41.1176C82.0958 43.424 82.0015 47.7897 81.0264 50.3982C77.535 59.6788 65.6767 64.0171 55.5484 59.7337C54.1329 59.1297 52.686 58.1687 51.0819 56.7683C47.4017 53.5833 45.7032 50.1511 45.6403 45.7853C45.6088 41.3647 47.3702 37.5206 50.7988 34.5278C55.4855 30.4366 61.2731 28.9539 67.9414 30.1895ZM113.236 30.1895C116.192 30.7112 119.275 32.2214 121.728 34.3356C131.29 42.6277 127.642 56.6585 114.934 60.53C105.089 63.5229 94.5203 58.6629 91.5007 49.7667C90.7458 47.5426 90.7458 43.4789 91.5007 41.2549C92.3814 38.6739 93.8912 36.4773 96.093 34.5003C100.717 30.4092 106.504 28.9539 113.236 30.1895ZM89.2989 56.988C90.7458 57.7293 91.1232 58.5805 90.5571 59.7612C89.7392 61.491 87.852 62.809 86.2478 62.809C84.4864 62.809 81.9386 60.4476 81.9386 58.8276C81.9386 56.6585 86.4365 55.5327 89.2989 56.988ZM22.7415 64.6761C23.3391 65.033 24.2198 71.7601 23.748 72.2818C23.3391 72.7211 21.9866 72.831 21.735 72.474C21.326 71.8974 20.634 65.4449 20.9486 64.9781C21.2631 64.429 22.0495 64.3191 22.7415 64.6761ZM11.7639 65.6371C11.9527 65.8568 12.2672 67.5042 12.4874 69.3164C12.8019 72.0347 12.7705 72.7211 12.4559 73.0781C11.9212 73.6272 11.355 73.6272 10.7574 73.133C10.2856 72.7211 9.37339 66.4059 9.71939 65.692C9.93957 65.1703 11.2921 65.1429 11.7639 65.6371ZM171.804 81.7546C172.621 83.155 172.024 87.1088 170.766 88.8112C170.231 89.5526 169.319 89.6349 168.721 89.0034C168.407 88.6465 168.438 88.3444 168.91 87.1638C169.287 86.2851 169.539 84.9397 169.57 83.6492C169.57 82.496 169.696 81.4251 169.822 81.2329C170.199 80.7113 171.363 81.0133 171.804 81.7546ZM161.141 81.7272C162.336 82.3862 162.21 86.2027 160.92 88.7563C160.417 89.7448 160.134 89.9919 159.505 89.9919C158.31 89.9919 157.901 89.1132 158.593 88.0149C158.939 87.4109 159.159 86.2302 159.253 84.6377C159.411 81.6997 159.851 81.0133 161.141 81.7272Z" fill="#746B6B"/>
</svg>
