<svg width="241" height="232" viewBox="0 0 241 232" fill="none" xmlns="http://www.w3.org/2000/svg">
<ellipse cx="120.5" cy="116" rx="120.5" ry="116" fill="#FCDA69"/>
<path d="M167.98 170.156V185H74.9141V172.012L121.496 120.156C127.225 113.776 131.652 108.372 134.777 103.945C137.967 99.4531 140.181 95.4492 141.418 91.9336C142.72 88.3529 143.371 84.707 143.371 80.9961C143.371 76.3086 142.395 72.0768 140.441 68.3008C138.553 64.4596 135.754 61.3997 132.043 59.1211C128.332 56.8424 123.84 55.7031 118.566 55.7031C112.251 55.7031 106.978 56.9401 102.746 59.4141C98.5794 61.8229 95.4544 65.2083 93.3711 69.5703C91.2878 73.9323 90.2461 78.9453 90.2461 84.6094H72.1797C72.1797 76.6016 73.9375 69.2773 77.4531 62.6367C80.9688 55.9961 86.1771 50.7227 93.0781 46.8164C99.9792 42.8451 108.475 40.8594 118.566 40.8594C127.551 40.8594 135.233 42.4544 141.613 45.6445C147.993 48.7695 152.876 53.1966 156.262 58.9258C159.712 64.5898 161.438 71.2305 161.438 78.8477C161.438 83.0143 160.721 87.2461 159.289 91.543C157.922 95.7747 156.001 100.007 153.527 104.238C151.118 108.47 148.286 112.637 145.031 116.738C141.841 120.84 138.423 124.876 134.777 128.848L96.6914 170.156H167.98Z" fill="#143D59"/>
</svg>
