<svg width="241" height="232" viewBox="0 0 241 232" fill="none" xmlns="http://www.w3.org/2000/svg">
<ellipse cx="120.5" cy="116" rx="120.5" ry="116" fill="#FCDA69"/>
<path d="M98.668 117.324L84.2148 113.613L91.3438 42.8125H164.293V59.5117H106.676L102.379 98.1836C104.983 96.6862 108.271 95.2865 112.242 93.9844C116.279 92.6823 120.901 92.0312 126.109 92.0312C132.685 92.0312 138.577 93.1706 143.785 95.4492C148.993 97.6628 153.421 100.853 157.066 105.02C160.777 109.186 163.609 114.199 165.562 120.059C167.516 125.918 168.492 132.461 168.492 139.688C168.492 146.523 167.548 152.806 165.66 158.535C163.837 164.264 161.07 169.277 157.359 173.574C153.648 177.806 148.961 181.094 143.297 183.438C137.698 185.781 131.09 186.953 123.473 186.953C117.743 186.953 112.307 186.172 107.164 184.609C102.086 182.982 97.5286 180.54 93.4922 177.285C89.5208 173.965 86.2656 169.863 83.7266 164.98C81.2526 160.033 79.6901 154.238 79.0391 147.598H96.2266C97.0078 152.936 98.5703 157.428 100.914 161.074C103.258 164.72 106.318 167.487 110.094 169.375C113.935 171.198 118.395 172.109 123.473 172.109C127.77 172.109 131.578 171.361 134.898 169.863C138.219 168.366 141.018 166.217 143.297 163.418C145.576 160.618 147.301 157.233 148.473 153.262C149.71 149.29 150.328 144.831 150.328 139.883C150.328 135.391 149.71 131.224 148.473 127.383C147.236 123.542 145.38 120.189 142.906 117.324C140.497 114.46 137.535 112.246 134.02 110.684C130.504 109.056 126.467 108.242 121.91 108.242C115.855 108.242 111.266 109.056 108.141 110.684C105.081 112.311 101.923 114.525 98.668 117.324Z" fill="#143D59"/>
</svg>
