<svg width="241" height="232" viewBox="0 0 241 232" fill="none" xmlns="http://www.w3.org/2000/svg">
<ellipse cx="120.5" cy="116" rx="120.5" ry="116" fill="#FCDA69"/>
<path d="M145.152 42.6172H146.715V57.9492H145.152C135.582 57.9492 127.574 59.5117 121.129 62.6367C114.684 65.6966 109.573 69.8307 105.797 75.0391C102.021 80.1823 99.2865 85.9766 97.5938 92.4219C95.9661 98.8672 95.1523 105.41 95.1523 112.051V132.949C95.1523 139.264 95.901 144.863 97.3984 149.746C98.8958 154.564 100.947 158.633 103.551 161.953C106.155 165.273 109.085 167.78 112.34 169.473C115.66 171.165 119.111 172.012 122.691 172.012C126.858 172.012 130.569 171.23 133.824 169.668C137.079 168.04 139.814 165.794 142.027 162.93C144.306 160 146.031 156.549 147.203 152.578C148.375 148.607 148.961 144.245 148.961 139.492C148.961 135.26 148.44 131.191 147.398 127.285C146.357 123.314 144.762 119.798 142.613 116.738C140.465 113.613 137.763 111.172 134.508 109.414C131.318 107.591 127.509 106.68 123.082 106.68C118.069 106.68 113.382 107.917 109.02 110.391C104.723 112.799 101.174 115.99 98.375 119.961C95.6406 123.867 94.0781 128.132 93.6875 132.754L84.1172 132.656C85.0286 125.365 86.7214 119.147 89.1953 114.004C91.7344 108.796 94.8594 104.564 98.5703 101.309C102.346 97.9883 106.546 95.5794 111.168 94.082C115.855 92.5195 120.803 91.7383 126.012 91.7383C133.108 91.7383 139.228 93.0729 144.371 95.7422C149.514 98.4115 153.746 101.992 157.066 106.484C160.387 110.911 162.828 115.924 164.391 121.523C166.018 127.057 166.832 132.754 166.832 138.613C166.832 145.319 165.888 151.602 164 157.461C162.112 163.32 159.28 168.464 155.504 172.891C151.793 177.318 147.203 180.768 141.734 183.242C136.266 185.716 129.918 186.953 122.691 186.953C115.009 186.953 108.303 185.391 102.574 182.266C96.8451 179.076 92.0924 174.844 88.3164 169.57C84.5404 164.297 81.7083 158.438 79.8203 151.992C77.9323 145.547 76.9883 139.004 76.9883 132.363V123.867C76.9883 113.841 77.9974 104.01 80.0156 94.375C82.0339 84.7396 85.5169 76.0156 90.4648 68.2031C95.4779 60.3906 102.411 54.1732 111.266 49.5508C120.12 44.9284 131.415 42.6172 145.152 42.6172Z" fill="#143D59"/>
</svg>
