<svg width="241" height="232" viewBox="0 0 241 232" fill="none" xmlns="http://www.w3.org/2000/svg">
<ellipse cx="120.5" cy="116" rx="120.5" ry="116" fill="#FCDA69"/>
<path d="M102.184 105.02H115.074C121.389 105.02 126.598 103.978 130.699 101.895C134.866 99.7461 137.958 96.849 139.977 93.2031C142.06 89.4922 143.102 85.3255 143.102 80.7031C143.102 75.2344 142.19 70.6445 140.367 66.9336C138.544 63.2227 135.81 60.4232 132.164 58.5352C128.518 56.6471 123.896 55.7031 118.297 55.7031C113.219 55.7031 108.727 56.7122 104.82 58.7305C100.979 60.6836 97.9518 63.4831 95.7383 67.1289C93.5898 70.7747 92.5156 75.0716 92.5156 80.0195H74.4492C74.4492 72.793 76.2721 66.2174 79.918 60.293C83.5638 54.3685 88.6745 49.6484 95.25 46.1328C101.891 42.6172 109.573 40.8594 118.297 40.8594C126.891 40.8594 134.41 42.3893 140.855 45.4492C147.301 48.444 152.314 52.9362 155.895 58.9258C159.475 64.8503 161.266 72.2396 161.266 81.0938C161.266 84.6745 160.419 88.5156 158.727 92.6172C157.099 96.6536 154.527 100.43 151.012 103.945C147.561 107.461 143.069 110.358 137.535 112.637C132.001 114.85 125.361 115.957 117.613 115.957H102.184V105.02ZM102.184 119.863V109.023H117.613C126.663 109.023 134.15 110.098 140.074 112.246C145.999 114.395 150.654 117.259 154.039 120.84C157.49 124.421 159.898 128.359 161.266 132.656C162.698 136.888 163.414 141.12 163.414 145.352C163.414 151.992 162.275 157.884 159.996 163.027C157.783 168.171 154.625 172.533 150.523 176.113C146.487 179.694 141.734 182.396 136.266 184.219C130.797 186.042 124.84 186.953 118.395 186.953C112.21 186.953 106.383 186.074 100.914 184.316C95.5104 182.559 90.7253 180.02 86.5586 176.699C82.3919 173.314 79.1367 169.18 76.793 164.297C74.4492 159.349 73.2773 153.717 73.2773 147.402H91.3438C91.3438 152.35 92.418 156.68 94.5664 160.391C96.7799 164.102 99.9049 166.999 103.941 169.082C108.043 171.1 112.861 172.109 118.395 172.109C123.928 172.109 128.681 171.165 132.652 169.277C136.689 167.324 139.781 164.395 141.93 160.488C144.143 156.582 145.25 151.667 145.25 145.742C145.25 139.818 144.013 134.967 141.539 131.191C139.065 127.35 135.549 124.518 130.992 122.695C126.5 120.807 121.194 119.863 115.074 119.863H102.184Z" fill="#143D59"/>
</svg>
